# xmcd
#
# Track frame offsets:
# 150
# 18892
# 37660
# 73380
# 89027
# 103650
# 126430
# 147855
# 171672
# 188427
# 208990
# 229995
# 253412
#
# Disc length: 4440 seconds
#
#
# Revision: 2
# Processed by: cddbd v1.5.1PL0 Copyright (c) Steve Scherf et al.
# Submitted via: FreeRIP 2.941 
#
DISCID=c711560d
DTITLE=Renato Russo - O Talento de Renato Russo
DYEAR=1900
DGENRE=
TTITLE0=Strani amori
TTITLE1=La Solitudine
TTITLE2=Dolcissima Maria
TTITLE3=I Loves You Porgy
TTITLE4=When You Wish Upon a Star
TTITLE5=Due
TTITLE6=Passera
TTITLE7=La Forza della Vita
TTITLE8=Send in the Clowns
TTITLE9=Cherish
TTITLE10=Somewhere
TTITLE11=Change Partners
TTITLE12=Data Track
EXTD=
EXTT0=
EXTT1=
EXTT2=
EXTT3=
EXTT4=
EXTT5=
EXTT6=
EXTT7=
EXTT8=
EXTT9=
EXTT10=
EXTT11=
EXTT12=
PLAYORDER=
